<svg fill="#ff6a00" version="1.1" id="Capa_1" xmlns="http://www.w3.org/2000/svg" xmlns:xlink="http://www.w3.org/1999/xlink" width="16px" height="16px" viewBox="0 0 41.336 41.336" xml:space="preserve" stroke="#ff6a00"><g id="SVGRepo_bgCarrier" stroke-width="0"></g><g id="SVGRepo_tracerCarrier" stroke-linecap="round" stroke-linejoin="round"></g><g id="SVGRepo_iconCarrier"> <g> <path d="M36.335,5.668h-8.167V1.5c0-0.828-0.672-1.5-1.5-1.5h-12c-0.828,0-1.5,0.672-1.5,1.5v4.168H5.001c-1.104,0-2,0.896-2,2 s0.896,2,2,2h2.001v29.168c0,1.381,1.119,2.5,2.5,2.5h22.332c1.381,0,2.5-1.119,2.5-2.5V9.668h2.001c1.104,0,2-0.896,2-2 S37.438,5.668,36.335,5.668z M16.168,3h9v2.668h-9V3z"></path> </g> </g></svg>